<svg xmlns="http://www.w3.org/2000/svg" viewBox="0 0 563.32 108"><defs><style>.cls-1{fill:#e0a266;}.cls-2{fill:#363636;}</style></defs><g id="Layer_2" data-name="Layer 2"><g id="Layer_1-2" data-name="Layer 1"><path class="cls-1" d="M80.56,0A54.11,54.11,0,0,0,31.2,31.87H71.51v8.85H28.12a52.91,52.91,0,0,0-1.47,8.85H53.78v8.86H26.65a52.91,52.91,0,0,0,1.47,8.85H71.51v8.85H31.2A54.08,54.08,0,1,0,80.56,0Z"/><path class="cls-1" d="M26.74,49.57H0v8.86H26.74c-.12-1.46-.18-2.94-.18-4.43S26.62,51,26.74,49.57Z"/><path class="cls-1" d="M17.7,67.28v8.85H31.29a53.56,53.56,0,0,1-3.09-8.85Z"/><path class="cls-1" d="M17.7,31.87v8.85H28.2a53.56,53.56,0,0,1,3.09-8.85Z"/><path class="cls-2" d="M204.08,12.6h6.5V38.1h-6.5V35.55a12,12,0,0,1-8.25,3.15c-6.81,0-12.51-5.15-12.51-13.35S189,12,195.83,12a12,12,0,0,1,8.25,3.15Zm0,17.85V20.25a10.41,10.41,0,0,0-6.86-2.85c-4,0-7.45,3-7.5,8s3.5,7.95,7.5,7.95A10.41,10.41,0,0,0,204.08,30.45Z"/><path class="cls-2" d="M235,12.05v7a10,10,0,0,0-2.56-.3,10.84,10.84,0,0,0-6.65,2.2V38.1h-6.45V12.6h6.45V17c1.85-2.55,5-5,8.35-5A4.11,4.11,0,0,1,235,12.05Z"/><path class="cls-2" d="M263.78,24.75a14.19,14.19,0,0,1-.11,1.6H245.12c.55,4.6,3.65,7.2,8.2,7.2a24.23,24.23,0,0,0,8.9-2v5a22.58,22.58,0,0,1-9.65,2.15c-8.65,0-13.55-5.85-13.55-13.55C239,16.9,244.57,12,251.92,12,259.58,12,263.83,17.35,263.78,24.75Zm-18.36-2.5h12.3c-.45-3.2-2.5-5.15-5.8-5.15A6.44,6.44,0,0,0,245.42,22.25Z"/><path class="cls-2" d="M293.78,24.75a14.19,14.19,0,0,1-.11,1.6H275.12c.55,4.6,3.65,7.2,8.2,7.2a24.23,24.23,0,0,0,8.9-2v5a22.58,22.58,0,0,1-9.65,2.15c-8.65,0-13.55-5.85-13.55-13.55C269,16.9,274.57,12,281.92,12,289.58,12,293.83,17.35,293.78,24.75Zm-18.36-2.5h12.3c-.45-3.2-2.5-5.15-5.8-5.15A6.44,6.44,0,0,0,275.42,22.25Z"/><path class="cls-2" d="M336.42,24.75a14.4,14.4,0,0,1-.1,1.6H317.77c.55,4.6,3.65,7.2,8.2,7.2a24.23,24.23,0,0,0,8.9-2v5a22.58,22.58,0,0,1-9.65,2.15c-8.65,0-13.55-5.85-13.55-13.55,0-8.25,5.55-13.15,12.9-13.15C332.22,12,336.47,17.35,336.42,24.75Zm-18.35-2.5h12.3c-.45-3.2-2.5-5.15-5.8-5.15A6.44,6.44,0,0,0,318.07,22.25Z"/><path class="cls-2" d="M355.22,4a4,4,0,0,1,8,0,4,4,0,0,1-8,0Zm.8,34.1V12.6h6.45V38.1Z"/><path class="cls-2" d="M409.72,22.05V38.1h-6.45V22.7c0-3.1-1.7-5.15-4.25-5.15-2,0-3.95,1.35-5.35,3.4a8.1,8.1,0,0,1,.05,1.1V38.1h-6.45V22.7c0-3.1-1.7-5.15-4.25-5.15-2,0-3.9,1.3-5.3,3.35V38.1h-6.45V12.6h6.45v3.1a9.11,9.11,0,0,1,7-3.7,8.36,8.36,0,0,1,7.9,4.7,10.3,10.3,0,0,1,8.1-4.7C406,12,409.72,15.7,409.72,22.05Z"/><path class="cls-2" d="M445.42,25.35c0,8.2-5.65,13.35-12.45,13.35a12.25,12.25,0,0,1-8.3-3.1V47.85h-6.45V12.6h6.5v2.5A12.12,12.12,0,0,1,433,12C439.77,12,445.42,17.15,445.42,25.35Zm-6.35,0c-.05-5-3.55-8-7.5-8a10.48,10.48,0,0,0-6.85,2.85l-.05,10.2a10.61,10.61,0,0,0,6.9,2.85C435.52,33.3,439,30.3,439.07,25.35Z"/><path class="cls-2" d="M451.72,4a4,4,0,0,1,8,0,4,4,0,0,1-8,0Zm.8,34.1V12.6H459V38.1Z"/><path class="cls-2" d="M486.77,12.6h6.5V38.1h-6.5V35.55a12,12,0,0,1-8.25,3.15c-6.8,0-12.5-5.15-12.5-13.35S471.72,12,478.52,12a12,12,0,0,1,8.25,3.15Zm0,17.85V20.25a10.38,10.38,0,0,0-6.85-2.85c-4,0-7.45,3-7.5,8s3.5,7.95,7.5,7.95A10.38,10.38,0,0,0,486.77,30.45Z"/><path class="cls-2" d="M526.12,22.05V38.1h-6.45V22.85c0-3.4-2-5.3-5-5.3A7.94,7.94,0,0,0,508.52,21V38.1h-6.45V12.6h6.45v3.15A11,11,0,0,1,516.77,12C522.17,12,526.12,15.5,526.12,22.05Z"/><path class="cls-2" d="M550,32.6V38a19.43,19.43,0,0,1-5.3.7c-7.95,0-10.45-5.8-10.45-11.7V9L540,5.3h.65v7.3h8.55v5.2h-8.55v9.25c0,3.55,1.7,6.1,5.3,6.1A15.15,15.15,0,0,0,550,32.6Z"/><path class="cls-2" d="M555.27,4a4,4,0,0,1,8.05,0,4,4,0,0,1-8.05,0Zm.8,34.1V12.6h6.45V38.1Z"/><path class="cls-2" d="M183.92,96.8V91.55a18.28,18.28,0,0,0,8.45,2.15c2.25,0,4.55-1,4.55-2.75,0-1.4-1.09-2.15-2.65-2.55l-4.5-1.2c-4.55-1.2-6.25-4.15-6.25-7.65,0-4.7,4.55-7.55,10.35-7.55a16.22,16.22,0,0,1,7.55,1.65V78.8a16.83,16.83,0,0,0-7.59-1.7c-2.11,0-4,.75-4,2.6,0,1.3,1,2,2.71,2.5l4.14,1.2c5.2,1.4,6.56,4.35,6.56,7.65,0,5.2-4.81,7.65-10.81,7.65C189.27,98.7,185.52,97.8,183.92,96.8Z"/><path class="cls-2" d="M237.23,85.35c0,8.2-5.65,13.35-12.45,13.35a12.27,12.27,0,0,1-8.31-3.1v12.25H210V72.6h6.5v2.5a12.14,12.14,0,0,1,8.26-3.1C231.58,72,237.23,77.15,237.23,85.35Zm-6.35,0c0-4.95-3.55-7.95-7.51-7.95a10.5,10.5,0,0,0-6.85,2.85l-.05,10.2a10.63,10.63,0,0,0,6.9,2.85C227.33,93.3,230.83,90.3,230.88,85.35Z"/><path class="cls-2" d="M242.52,85.35c0-7.8,6.15-13.35,13.85-13.35s13.85,5.55,13.85,13.35S264.07,98.7,256.37,98.7,242.52,93.1,242.52,85.35Zm21.35,0a7.48,7.48,0,1,0-7.5,7.75A7.55,7.55,0,0,0,263.87,85.35Z"/><path class="cls-2" d="M292.87,72.05v7a9.91,9.91,0,0,0-2.55-.3,10.84,10.84,0,0,0-6.65,2.2V98.1h-6.45V72.6h6.45V77c1.85-2.55,4.95-5,8.35-5A4.06,4.06,0,0,1,292.87,72.05Z"/><path class="cls-2" d="M314.42,92.6V98a19.43,19.43,0,0,1-5.3.7c-7.95,0-10.45-5.8-10.45-11.7V69l5.8-3.7h.65v7.3h8.55v5.2h-8.55v9.25c0,3.55,1.7,6.1,5.3,6.1A15.15,15.15,0,0,0,314.42,92.6Z"/><path class="cls-2" d="M319.72,64a4,4,0,1,1,4,3.85A3.89,3.89,0,0,1,319.72,64Zm.8,34.1V72.6H327V98.1Z"/><path class="cls-2" d="M353.27,72.6h7v.45l-12.65,25h-2.35l-12.7-25V72.6h6.9l7,15.1Z"/><path class="cls-2" d="M365,64a4,4,0,1,1,4,3.85A3.89,3.89,0,0,1,365,64Zm.8,34.1V72.6h6.45V98.1Z"/></g></g></svg>