<svg xmlns="http://www.w3.org/2000/svg" viewBox="0 0 602.08 108"><defs><style>.cls-1{fill:#e0a266;}.cls-2{fill:#363636;}</style></defs><g id="Layer_2" data-name="Layer 2"><g id="Layer_1-2" data-name="Layer 1"><path class="cls-1" d="M80.56,0A54.11,54.11,0,0,0,31.2,31.87H71.51v8.85H28.12a52.91,52.91,0,0,0-1.47,8.85H53.78v8.86H26.65a52.91,52.91,0,0,0,1.47,8.85H71.51v8.85H31.2A54.08,54.08,0,1,0,80.56,0Z"/><path class="cls-1" d="M26.74,49.57H0v8.86H26.74c-.12-1.46-.18-2.94-.18-4.43S26.62,51,26.74,49.57Z"/><path class="cls-1" d="M17.7,67.28v8.85H31.29a53.56,53.56,0,0,1-3.09-8.85Z"/><path class="cls-1" d="M17.7,31.87v8.85H28.2a53.56,53.56,0,0,1,3.09-8.85Z"/><path class="cls-2" d="M210.51,25.27c0,8.22-5.67,13.39-12.49,13.39a12.26,12.26,0,0,1-8.32-3.11V47.83h-6.47V12.49h6.52V15A12.18,12.18,0,0,1,198,11.88C204.84,11.88,210.51,17.05,210.51,25.27Zm-6.37,0c0-5-3.56-8-7.52-8a10.5,10.5,0,0,0-6.87,2.86l-.05,10.23a10.66,10.66,0,0,0,6.92,2.85C200.58,33.24,204.09,30.23,204.14,25.27Z"/><path class="cls-2" d="M234.72,12.49h6.47V38.06h-6.47V34.9a10.94,10.94,0,0,1-8.27,3.76c-5.41,0-9.38-3.51-9.38-10.08V12.49h6.52V27.78c0,3.41,2,5.31,5,5.31a7.94,7.94,0,0,0,6.16-3.46Z"/><path class="cls-2" d="M273.93,22v16.1h-6.47V22.76c0-3.41-2-5.31-5-5.31a8,8,0,0,0-6.17,3.46V38.06h-6.47V12.49h6.47v3.15a11.06,11.06,0,0,1,8.28-3.76C270,11.88,273.93,15.39,273.93,22Z"/><path class="cls-2" d="M297.65,32.54V38a19.58,19.58,0,0,1-5.32.7c-8,0-10.48-5.82-10.48-11.73V8.87l5.82-3.71h.65v7.33h8.57V17.7h-8.57V27c0,3.56,1.7,6.11,5.31,6.11A15.3,15.3,0,0,0,297.65,32.54Z"/><path class="cls-2" d="M302.76,3.86a4,4,0,0,1,8.07,0,4,4,0,0,1-8.07,0Zm.8,34.2V12.49H310V38.06Z"/><path class="cls-2" d="M350.19.45h6.52V38.06h-6.52V35.5a12,12,0,0,1-8.27,3.16c-6.82,0-12.54-5.17-12.54-13.39s5.72-13.39,12.54-13.39A12.07,12.07,0,0,1,350.19,15Zm0,29.94V20.16a10.39,10.39,0,0,0-6.87-2.86c-4,0-7.47,3-7.52,8s3.51,8,7.52,8A10.43,10.43,0,0,0,350.19,30.39Z"/><path class="cls-2" d="M363.42,16.9,367.08,3h7.12L368.29,16.9Z"/><path class="cls-2" d="M379.12,3.86a4,4,0,0,1,8.07,0,4,4,0,0,1-8.07,0Zm.8,34.2V12.49h6.47V38.06Z"/><path class="cls-2" d="M419.13,22v16.1h-6.47V22.76c0-3.41-2-5.31-5-5.31a7.94,7.94,0,0,0-6.17,3.46V38.06H395V12.49h6.47v3.15a11,11,0,0,1,8.27-3.76C415.17,11.88,419.13,15.39,419.13,22Z"/><path class="cls-2" d="M442.84,32.54V38a19.5,19.5,0,0,1-5.31.7c-8,0-10.48-5.82-10.48-11.73V8.87l5.81-3.71h.66v7.33h8.57V17.7h-8.57V27c0,3.56,1.7,6.11,5.31,6.11A15.22,15.22,0,0,0,442.84,32.54Z"/><path class="cls-2" d="M471.47,24.67a14.4,14.4,0,0,1-.1,1.6h-18.6c.55,4.62,3.66,7.22,8.22,7.22a24.38,24.38,0,0,0,8.93-2v5a22.57,22.57,0,0,1-9.68,2.16c-8.67,0-13.59-5.87-13.59-13.59,0-8.27,5.57-13.19,12.94-13.19C467.26,11.88,471.52,17.25,471.47,24.67Zm-18.4-2.51H465.4C465,19,462.9,17,459.59,17A6.46,6.46,0,0,0,453.07,22.16Z"/><path class="cls-2" d="M493.93,11.93v7a9.94,9.94,0,0,0-2.56-.3,10.82,10.82,0,0,0-6.66,2.21V38.06h-6.47V12.49h6.47V16.9c1.85-2.56,5-5,8.37-5A4.06,4.06,0,0,1,493.93,11.93Z"/><path class="cls-2" d="M522.56,24.67a14.4,14.4,0,0,1-.1,1.6h-18.6c.55,4.62,3.66,7.22,8.22,7.22a24.38,24.38,0,0,0,8.93-2v5a22.57,22.57,0,0,1-9.68,2.16c-8.68,0-13.59-5.87-13.59-13.59,0-8.27,5.57-13.19,12.94-13.19C518.35,11.88,522.61,17.25,522.56,24.67Zm-18.4-2.51h12.33C516,19,514,17,510.68,17A6.46,6.46,0,0,0,504.16,22.16Z"/><path class="cls-2" d="M528.17,36.75V31.49a18.4,18.4,0,0,0,8.48,2.15c2.25,0,4.56-1,4.56-2.75,0-1.41-1.1-2.16-2.66-2.56L534,27.13c-4.56-1.21-6.27-4.17-6.27-7.68,0-4.71,4.57-7.57,10.38-7.57a16.3,16.3,0,0,1,7.57,1.66V18.7A16.92,16.92,0,0,0,538.1,17c-2.1,0-4,.75-4,2.61,0,1.3,1.05,2.05,2.71,2.5L541,23.32c5.21,1.4,6.57,4.36,6.57,7.67,0,5.21-4.82,7.67-10.83,7.67C533.54,38.66,529.78,37.76,528.17,36.75Z"/><path class="cls-2" d="M553,36.75V31.49a18.4,18.4,0,0,0,8.48,2.15c2.25,0,4.56-1,4.56-2.75,0-1.41-1.1-2.16-2.66-2.56l-4.51-1.2c-4.56-1.21-6.27-4.17-6.27-7.68,0-4.71,4.56-7.57,10.38-7.57a16.3,16.3,0,0,1,7.57,1.66V18.7a16.92,16.92,0,0,0-7.62-1.7c-2.11,0-4,.75-4,2.61,0,1.3,1,2.05,2.71,2.5l4.16,1.21c5.21,1.4,6.57,4.36,6.57,7.67,0,5.21-4.82,7.67-10.83,7.67C558.36,38.66,554.6,37.76,553,36.75Z"/><path class="cls-2" d="M602.08,24.67a14.4,14.4,0,0,1-.1,1.6h-18.6c.55,4.62,3.66,7.22,8.22,7.22a24.29,24.29,0,0,0,8.92-2v5a22.48,22.48,0,0,1-9.67,2.16c-8.68,0-13.59-5.87-13.59-13.59,0-8.27,5.56-13.19,12.94-13.19C597.87,11.88,602.13,17.25,602.08,24.67Zm-18.4-2.51H596C595.56,19,593.5,17,590.2,17A6.46,6.46,0,0,0,583.68,22.16Z"/><path class="cls-2" d="M182.08,96.92V91.65a18.28,18.28,0,0,0,8.47,2.16c2.26,0,4.57-1,4.57-2.76,0-1.4-1.11-2.15-2.66-2.55L188,87.29c-4.57-1.2-6.27-4.16-6.27-7.67,0-4.71,4.56-7.57,10.38-7.57a16.34,16.34,0,0,1,7.57,1.65v5.17A16.86,16.86,0,0,0,192,77.16c-2.11,0-4,.76-4,2.61,0,1.3,1,2.06,2.7,2.51l4.17,1.2c5.21,1.4,6.56,4.36,6.56,7.67,0,5.22-4.81,7.67-10.83,7.67C187.44,98.82,183.68,97.92,182.08,96.92Z"/><path class="cls-2" d="M235.33,85.44c0,8.22-5.67,13.38-12.49,13.38a12.28,12.28,0,0,1-8.32-3.1V108h-6.47V72.65h6.52v2.51a12.11,12.11,0,0,1,8.27-3.11C229.66,72.05,235.33,77.21,235.33,85.44Zm-6.37,0c-.05-5-3.56-8-7.52-8a10.52,10.52,0,0,0-6.87,2.86l0,10.23a10.6,10.6,0,0,0,6.92,2.86C225.4,93.41,228.91,90.4,229,85.44Z"/><path class="cls-2" d="M240.44,85.44c0-7.83,6.17-13.39,13.89-13.39s13.89,5.56,13.89,13.39-6.17,13.38-13.89,13.38S240.44,93.21,240.44,85.44Zm21.41,0a7.5,7.5,0,1,0-7.52,7.77A7.57,7.57,0,0,0,261.85,85.44Z"/><path class="cls-2" d="M290.73,72.1v7a10,10,0,0,0-2.56-.3A10.91,10.91,0,0,0,281.5,81V98.22H275V72.65h6.47v4.41c1.86-2.55,5-5,8.38-5A4.06,4.06,0,0,1,290.73,72.1Z"/><path class="cls-2" d="M312.14,92.71v5.41a19.58,19.58,0,0,1-5.32.7c-8,0-10.48-5.81-10.48-11.73V69l5.82-3.71h.65v7.32h8.57v5.22h-8.57v9.27c0,3.56,1.7,6.12,5.31,6.12A15.3,15.3,0,0,0,312.14,92.71Z"/><path class="cls-2" d="M317.25,64a4,4,0,1,1,4,3.86A3.89,3.89,0,0,1,317.25,64Zm.8,34.19V72.65h6.47V98.22Z"/><path class="cls-2" d="M350.69,72.65h7v.45L345,98.22h-2.36L329.88,73.1v-.45h6.92l7,15.14Z"/><path class="cls-2" d="M360.12,85.44c0-7.83,6.16-13.39,13.88-13.39s13.89,5.56,13.89,13.39S381.73,98.82,374,98.82,360.12,93.21,360.12,85.44Zm21.41,0A7.5,7.5,0,1,0,374,93.21,7.57,7.57,0,0,0,381.53,85.44Z"/></g></g></svg>